<svg width="286" height="65" viewBox="0 0 286 65" fill="none" xmlns="http://www.w3.org/2000/svg">
<path fill-rule="evenodd" clip-rule="evenodd" d="M215.9 42.5824C215.9 49.8352 213.639 57.8571 208.192 57.8571C202.59 57.8571 199.969 49.8352 199.969 42.6374C199.969 35.8791 201.819 27.4176 207.832 27.4176C213.948 27.4725 215.9 35.6593 215.9 42.5824ZM185.373 22.6374H184.808C179.463 22.6374 174.941 26.044 172.885 32.1978V22.6374H171.6H160.396V35V65H172.885V43.9011C172.885 38.956 175.043 34.7253 180.594 34.6154L185.425 34.5604V22.6374H185.373ZM130.28 64.4505H123.034C112.858 64.4505 106.177 58.7912 106.177 48.3516V27.0879H99.9073V22.6374H106.177V9.28571H118.666V22.6374H129.098V27.0879H118.666V48.4066C118.666 53.7363 120.413 58.6264 124.833 58.6813L130.229 58.7363L130.28 64.4505ZM62.4934 35.989C62.4934 32.0879 60.3863 27.1429 55.7096 27.1429C49.9536 27.1429 48.3091 32.1978 48.0007 37.9121L62.3907 37.8571L62.4934 37.1978C62.4934 36.8132 62.4934 36.3736 62.4934 35.989ZM73.0289 39.3956C73.0289 40 72.9261 40.4945 72.9261 41.044C72.9261 41.6484 72.9261 42.3626 72.8234 42.967L48.0007 42.6374C48.4632 51.1539 54.0137 58.2418 61.8253 58.2418H72.8234V64.9451H58.1765C45.9964 64.9451 35.5123 58.5714 35.5123 43.956C35.5123 30.2747 45.1227 20.9341 55.6068 20.9341C65.6798 20.989 73.0289 28.022 73.0289 39.3956ZM39.4182 22.6374H30.6814L22.1502 52.3626L13.5677 22.6374H0L14.133 64.9451H25.6963L39.4182 22.6374ZM74.9305 58.2967V65H91.5303C98.828 65 103.248 58.5165 103.351 52.6923C103.556 38.9011 88.4467 40.6593 88.4467 33.0769C88.4467 30.3297 89.7315 27.1429 94.4083 27.1429H99.9073V22.6923H89.269C80.0183 22.6923 74.6735 29.2308 74.6735 36.044C74.6735 48.2967 89.7315 48.4615 89.526 54.7253C89.4746 56.8681 88.2412 58.3517 84.9006 58.3517H74.9305V58.2967ZM160.088 0V5.71428L154.383 5.76923C149.912 5.82418 147.908 10.7143 147.908 16.044V22.6374H158.341V27.0879H147.908V64.9451H135.368V27.0879H131.205V22.6374H135.368V16.0989C135.368 5.71429 142.358 0.0549451 152.533 0H160.088ZM285.846 64.4505H278.959C268.783 64.4505 262.462 58.7912 262.462 48.3516V27.0879H256.192V22.6374H262.462V9.28571H274.951V22.6374H285.383V27.0879H274.951V48.4066C274.951 53.7363 276.338 58.6264 280.758 58.6813L286 58.7363L285.846 64.4505ZM231.215 58.2967V65H247.096C254.394 65 258.813 58.5165 258.916 52.6923C259.122 38.9011 244.012 40.6593 244.012 33.0769C244.012 30.3297 245.297 27.1429 249.974 27.1429H254.085V22.6923H244.834C235.584 22.6923 230.239 29.2308 230.239 36.044C230.239 48.2967 245.297 48.4615 245.091 54.7253C245.04 56.8681 243.807 58.3517 240.466 58.3517H231.215V58.2967ZM228.8 42.6374C228.8 29.5055 220.269 20.8242 208.037 20.8242C196.011 20.8242 187.121 29.2308 187.121 42.5275C187.121 55.7143 195.857 64.3956 208.346 64.3956C219.909 64.4506 228.8 55.9341 228.8 42.6374Z" fill="#DCDCDC"/>
</svg>
