<svg xmlns="http://www.w3.org/2000/svg" width="154.531" height="143.2" viewBox="0 0 154.531 143.2">
  <defs>
    <style>
      .cls-1 {
        fill: #fff;
        fill-rule: evenodd;
      }
    </style>
  </defs>
  <path id="Vector" class="cls-1" d="M769.653,13731.8a52.82,52.82,0,0,1,4.821-5.3c10.078-7.9,16.213-9.6,17.528-6.5,1.314,3-1.753,4.8-7.888,7.4-5.7,2.6-14.022,12.3-10.517,21.1,3.944,8.8,12.27,9.2,19.281,7.9,4.382-.9,5.7-1.8,6.573-3.1,0-2.2,0-11-.438-14.9-0.877-4.4-.877-3.1-0.439-6.6s3.944-17.6,6.135-22.4,12.27-18,18.843-21.9a58.228,58.228,0,0,1,13.146-5.7,3.818,3.818,0,0,0,1.314-4c-0.438-2.2-1.314-10.5-2.191-14-1.314-4-.876-5.3,0-7.9,0.877-2.7,5.259-11,5.259-11s0-4.9,1.314-7.9c1.315-2.7,3.506-7.5,4.82-6.2s3.068,7.5,3.506,10.1c0,0,10.517,3.1,10.955,3.5,0.438,0.5,1.314.5,1.753,0.9,0.438,0.5,1.314,1.8,1.753,1.8a45.582,45.582,0,0,1,8.325,2.2,2.2,2.2,0,0,1,1.753.8,27.332,27.332,0,0,1,.876,5.3,1.791,1.791,0,0,1-.438,1.3s0,3.1-.876,4a19.12,19.12,0,0,1-4.382,3.5c-1.753,1.3-5.258,3.1-5.258,4.8,0,0,10.078.9,12.269,0a7.986,7.986,0,0,0,3.506-2.2c0.876-.9,14.022-14.5,17.966-20.2a95.544,95.544,0,0,0,8.325-17.1c0.877-2.6,2.192-4.8,4.382-3.9a3.373,3.373,0,0,1,3.506-2.7c3.067,0,3.067.9,3.944,2.2s1.753,2.7,1.314,4a6.447,6.447,0,0,1-1.314,2.2,2.078,2.078,0,0,1,.438,3c-1.315,1.8-1.753,1.8-3.506,2.7-1.752,1.3-6.134,6.1-6.572,7.9v-0.5a14.273,14.273,0,0,0-.877,3.1,13.542,13.542,0,0,1-1.753,4.4,35.388,35.388,0,0,0-2.191,3.5c-0.438.9-5.7,12.3-7.011,17.1-1.753,5.3-2.191,7.1-3.5,7.9-1.315.9-9.2,5.3-10.517,7.5l-0.877.9h0.877s-6.135,2.2-7.011,3.5c-3.506,6.6-1.315,4.8-5.7,20.2a81.029,81.029,0,0,0-5.258,16.7c-0.438,2.2,0,7.9,0,10.5,0,3.1,1.314,9.7,1.314,13.2,0,0,2.629,6.1,4.82,7.4a4.133,4.133,0,0,1,5.259,0c2.629,1.8,3.067,4,2.629,4.9-0.438.8-3.944,0.8-3.944,0.8H867.81s-2.629-.4-3.506-1.7c-1.315-1.3-4.82-7-4.82-7.9,0,0-.876.4-0.876-0.4-0.439-.9,0-2.7.438-2.7,0,0-.877-3.1-1.315-5.3,0,0-2.191-12.7-4.382-15.8a25.257,25.257,0,0,1,.877,4.4c0,1.8,0,7.5-3.068,11s-7.449,8.4-7.887,9.2c-0.439.9-.877,1.3,3.067,0.9,3.506-.4,8.326.9,10.079,3.1s1.752,2.6.438,3.1a9.235,9.235,0,0,1-5.7,1.7c-3.067,0-45.134-.4-45.134-0.4s-0.438-.5-0.877-0.9a12.23,12.23,0,0,0-3.943,0c-3.944.4-21.472,2.6-28.921-7a6.959,6.959,0,0,1-1.315-1.8C769.653,13757.3,761.328,13741.5,769.653,13731.8Z" transform="translate(-766 -13622.9)"/>
</svg>
