<svg xmlns="http://www.w3.org/2000/svg" width="185.531" height="192.1" viewBox="0 0 185.531 192.1">
  <defs>
    <style>
      .cls-1 {
        fill: #fff;
        fill-rule: evenodd;
      }
    </style>
  </defs>
  <path id="Vector" class="cls-1" d="M1077.27,13721.7c-0.44-1.3-11.83-12.3-15.78-24.1-3.94-11.9-12.27-33.4-15.77-37.8a5.571,5.571,0,0,1-1.32-1.8c3.95-3.9,12.71-13.6,18.41-25.4a64.565,64.565,0,0,0,6.13-30.3c0-2.2.44-6.2-.44-4.8-0.87.8-6.13,22.8-12.7,34.2-5.26,9.2-17.09,16.2-21.04,18.4-3.07-2.2-6.57-4.3-9.64-4.8-7.01-1.3-26.29-3.9-29.8-5.3-3.5-1.3-23.662-11.4-28.921-19.7-5.258-7.9-10.078-20.2-10.078-20.2l-5.259-11.4s-0.876-4.4-3.067-5.7-14.022-8.8-23.224-4.9c0,0-4.382,4.4-6.135,5.3a32.542,32.542,0,0,1-8.764,2.6c-3.068.5-11.393,2.2-11.393,2.2a1.355,1.355,0,0,0-1.753,1.4,13.112,13.112,0,0,0,2.191,5.7s0.438,4.4,1.753,6.1a11.194,11.194,0,0,0,8.326,4.4c3.5,0,13.145.4,14.46,1.3,0.876,0.9,3.944,4,3.944,4a91.869,91.869,0,0,1,2.629,13.1c0.438,4.9.876,11.5,0,14.1s0,10.5,0,12.3a29.738,29.738,0,0,1-1.315,6.6,14.627,14.627,0,0,0,2.63-2.7s0.438,4.4,0,6.2l1.314-1.3v5.7c0,0.4,3.067,7.4,3.944,10.1,0.876,2.6,1.315,6.6,2.629,7.9,1.753,1.7,4.82,7.9,5.7,10.5s5.258,24.6,5.258,24.6,2.191,32.5,1.315,34.7-3.944,7.9-3.944,7.9-3.944-.9-6.135,2.2-1.314,4.4-1.314,4.4l2.191,0.4s-0.877,1.3,4.82,1.3,8.764-.4,10.516-2.6c2.191-2.2,3.944-7,5.7-9.2,1.315-2.2,2.191-4,2.191-6.2,0.438-1.7,1.315-7.4,1.315-7.4s2.191,0.4,1.752-2.7c0-3-1.314-3.5-.876-5.2,0-1.8,4.382-28.1,4.82-30.8,0.438-2.6.877-4.4,0.438-5.2a27.677,27.677,0,0,1-1.752-3.6s9.2-2.2,12.707-4.3c3.944-2.2,12.708-7.1,16.209-8.4,3.95-1.3,12.27-1.7,12.27-1.7a61.418,61.418,0,0,0,8.33,22.3c6.57,11.5,16.21,24.2,17.09,29.9a106.954,106.954,0,0,1,.88,15.4,32.764,32.764,0,0,1-1.32,7.4,5.556,5.556,0,0,0-5.26,1.8,8.142,8.142,0,0,0-2.63,5.3s-0.43,1.3,7.45,1.3,7.45-1.3,8.77-3.5c0.87-2.2,2.19-33.4,2.19-34.3a3.748,3.748,0,0,0-1.32-3.1c-1.31-1.3-6.13-12.3-4.38-17.1,0,0,15.34,13.6,18.84,16.3a32.994,32.994,0,0,1,7.45,10.1c1.32,2.2,7.01,15.3,7.45,25.9,0,0-6.13.4-7.01,4.8s2.63,3.9,5.26,3.9c1.31,0,7.01.5,7.89-.8C1082.96,13766.5,1079.9,13730.9,1077.27,13721.7Z" transform="translate(-896.719 -13577)"/>
</svg>
